<mxfile host="app.diagrams.net" modified="2024-02-24T15:48:21.581Z" agent="Mozilla/5.0 (Windows NT 10.0; Win64; x64) AppleWebKit/537.36 (KHTML, like Gecko) Chrome/121.0.0.0 Safari/537.36 Edg/121.0.0.0" etag="pAvof0UVGPtgigUWDOzD" version="23.1.6" type="device">
  <diagram name="Сторінка-1" id="fhrWHgtsgEICmLfOh0h-">
    <mxGraphModel dx="1226" dy="742" grid="1" gridSize="10" guides="1" tooltips="1" connect="1" arrows="1" fold="1" page="1" pageScale="1" pageWidth="827" pageHeight="1169" math="0" shadow="0">
      <root>
        <mxCell id="0" />
        <mxCell id="1" parent="0" />
        <mxCell id="ECvIYYzI3fATd54jcmxr-10" value="MainWindow" style="swimlane;fontStyle=1;align=center;verticalAlign=top;childLayout=stackLayout;horizontal=1;startSize=26;horizontalStack=0;resizeParent=1;resizeParentMax=0;resizeLast=0;collapsible=1;marginBottom=0;whiteSpace=wrap;html=1;" vertex="1" parent="1">
          <mxGeometry x="10" y="210" width="210" height="190" as="geometry">
            <mxRectangle x="174" y="210" width="110" height="30" as="alternateBounds" />
          </mxGeometry>
        </mxCell>
        <mxCell id="ECvIYYzI3fATd54jcmxr-11" value="+QString skinchange&lt;br&gt;+QString backgroundchange&lt;br&gt;+bool controller" style="text;strokeColor=none;fillColor=none;align=left;verticalAlign=top;spacingLeft=4;spacingRight=4;overflow=hidden;rotatable=0;points=[[0,0.5],[1,0.5]];portConstraint=eastwest;whiteSpace=wrap;html=1;" vertex="1" parent="ECvIYYzI3fATd54jcmxr-10">
          <mxGeometry y="26" width="210" height="74" as="geometry" />
        </mxCell>
        <mxCell id="ECvIYYzI3fATd54jcmxr-12" value="" style="line;strokeWidth=1;fillColor=none;align=left;verticalAlign=middle;spacingTop=-1;spacingLeft=3;spacingRight=3;rotatable=0;labelPosition=right;points=[];portConstraint=eastwest;strokeColor=inherit;" vertex="1" parent="ECvIYYzI3fATd54jcmxr-10">
          <mxGeometry y="100" width="210" height="8" as="geometry" />
        </mxCell>
        <mxCell id="ECvIYYzI3fATd54jcmxr-13" value="+void startDoodleGame()&lt;br&gt;+void starteasyGame();&lt;div&gt;+void startmediumGame();&lt;/div&gt;&lt;div&gt;+void starthardGame();&lt;/div&gt;" style="text;strokeColor=none;fillColor=none;align=left;verticalAlign=top;spacingLeft=4;spacingRight=4;overflow=hidden;rotatable=0;points=[[0,0.5],[1,0.5]];portConstraint=eastwest;whiteSpace=wrap;html=1;" vertex="1" parent="ECvIYYzI3fATd54jcmxr-10">
          <mxGeometry y="108" width="210" height="82" as="geometry" />
        </mxCell>
        <mxCell id="ECvIYYzI3fATd54jcmxr-20" value="Platform" style="swimlane;fontStyle=1;align=center;verticalAlign=top;childLayout=stackLayout;horizontal=1;startSize=26;horizontalStack=0;resizeParent=1;resizeParentMax=0;resizeLast=0;collapsible=1;marginBottom=0;whiteSpace=wrap;html=1;" vertex="1" parent="1">
          <mxGeometry x="480" y="30" width="160" height="170" as="geometry" />
        </mxCell>
        <mxCell id="ECvIYYzI3fATd54jcmxr-21" value="#vector&amp;lt;Vector2f&amp;gt; plat;" style="text;strokeColor=none;fillColor=none;align=left;verticalAlign=top;spacingLeft=4;spacingRight=4;overflow=hidden;rotatable=0;points=[[0,0.5],[1,0.5]];portConstraint=eastwest;whiteSpace=wrap;html=1;" vertex="1" parent="ECvIYYzI3fATd54jcmxr-20">
          <mxGeometry y="26" width="160" height="44" as="geometry" />
        </mxCell>
        <mxCell id="ECvIYYzI3fATd54jcmxr-22" value="" style="line;strokeWidth=1;fillColor=none;align=left;verticalAlign=middle;spacingTop=-1;spacingLeft=3;spacingRight=3;rotatable=0;labelPosition=right;points=[];portConstraint=eastwest;strokeColor=inherit;" vertex="1" parent="ECvIYYzI3fATd54jcmxr-20">
          <mxGeometry y="70" width="160" height="8" as="geometry" />
        </mxCell>
        <mxCell id="ECvIYYzI3fATd54jcmxr-23" value="+virtual void createPlatform()&lt;br&gt;+void movePlatforms()&lt;br&gt;&amp;nbsp;virtual void TouchToPlatform()&lt;br&gt;&lt;div&gt;&lt;br&gt;&lt;/div&gt;" style="text;strokeColor=none;fillColor=none;align=left;verticalAlign=top;spacingLeft=4;spacingRight=4;overflow=hidden;rotatable=0;points=[[0,0.5],[1,0.5]];portConstraint=eastwest;whiteSpace=wrap;html=1;" vertex="1" parent="ECvIYYzI3fATd54jcmxr-20">
          <mxGeometry y="78" width="160" height="92" as="geometry" />
        </mxCell>
        <mxCell id="ECvIYYzI3fATd54jcmxr-24" value="WhitePlatform" style="swimlane;fontStyle=1;align=center;verticalAlign=top;childLayout=stackLayout;horizontal=1;startSize=26;horizontalStack=0;resizeParent=1;resizeParentMax=0;resizeLast=0;collapsible=1;marginBottom=0;whiteSpace=wrap;html=1;" vertex="1" parent="1">
          <mxGeometry x="370" y="300" width="173" height="156" as="geometry" />
        </mxCell>
        <mxCell id="ECvIYYzI3fATd54jcmxr-71" value="#bool takenWhitePlatforms[5]" style="text;html=1;align=center;verticalAlign=middle;resizable=0;points=[];autosize=1;strokeColor=none;fillColor=none;" vertex="1" parent="ECvIYYzI3fATd54jcmxr-24">
          <mxGeometry y="26" width="173" height="30" as="geometry" />
        </mxCell>
        <mxCell id="ECvIYYzI3fATd54jcmxr-26" value="" style="line;strokeWidth=1;fillColor=none;align=left;verticalAlign=middle;spacingTop=-1;spacingLeft=3;spacingRight=3;rotatable=0;labelPosition=right;points=[];portConstraint=eastwest;strokeColor=inherit;" vertex="1" parent="ECvIYYzI3fATd54jcmxr-24">
          <mxGeometry y="56" width="173" height="34" as="geometry" />
        </mxCell>
        <mxCell id="ECvIYYzI3fATd54jcmxr-27" value="+void movePlatforms()&lt;br&gt;+void TouchToPlatform() override&lt;br&gt;&lt;div&gt;&lt;br&gt;&lt;/div&gt;" style="text;strokeColor=none;fillColor=none;align=left;verticalAlign=top;spacingLeft=4;spacingRight=4;overflow=hidden;rotatable=0;points=[[0,0.5],[1,0.5]];portConstraint=eastwest;whiteSpace=wrap;html=1;" vertex="1" parent="ECvIYYzI3fATd54jcmxr-24">
          <mxGeometry y="90" width="173" height="66" as="geometry" />
        </mxCell>
        <mxCell id="ECvIYYzI3fATd54jcmxr-32" value="ExtremePlatform" style="swimlane;fontStyle=1;align=center;verticalAlign=top;childLayout=stackLayout;horizontal=1;startSize=26;horizontalStack=0;resizeParent=1;resizeParentMax=0;resizeLast=0;collapsible=1;marginBottom=0;whiteSpace=wrap;html=1;" vertex="1" parent="1">
          <mxGeometry x="540" y="560" width="160" height="140" as="geometry" />
        </mxCell>
        <mxCell id="ECvIYYzI3fATd54jcmxr-34" value="" style="line;strokeWidth=1;fillColor=none;align=left;verticalAlign=middle;spacingTop=-1;spacingLeft=3;spacingRight=3;rotatable=0;labelPosition=right;points=[];portConstraint=eastwest;strokeColor=inherit;" vertex="1" parent="ECvIYYzI3fATd54jcmxr-32">
          <mxGeometry y="26" width="160" height="8" as="geometry" />
        </mxCell>
        <mxCell id="ECvIYYzI3fATd54jcmxr-35" value="+void drawplatforms()&lt;br&gt;+void createplatform(int count)&lt;br&gt;+void moveplatforms()" style="text;strokeColor=none;fillColor=none;align=left;verticalAlign=top;spacingLeft=4;spacingRight=4;overflow=hidden;rotatable=0;points=[[0,0.5],[1,0.5]];portConstraint=eastwest;whiteSpace=wrap;html=1;" vertex="1" parent="ECvIYYzI3fATd54jcmxr-32">
          <mxGeometry y="34" width="160" height="106" as="geometry" />
        </mxCell>
        <mxCell id="ECvIYYzI3fATd54jcmxr-36" value="Game" style="swimlane;fontStyle=1;align=center;verticalAlign=top;childLayout=stackLayout;horizontal=1;startSize=26;horizontalStack=0;resizeParent=1;resizeParentMax=0;resizeLast=0;collapsible=1;marginBottom=0;whiteSpace=wrap;html=1;" vertex="1" parent="1">
          <mxGeometry x="70" y="570" width="160" height="90" as="geometry" />
        </mxCell>
        <mxCell id="ECvIYYzI3fATd54jcmxr-37" value="&lt;div&gt;+int x, y, h;&lt;/div&gt;&lt;div&gt;+float dx, dy;&lt;/div&gt;" style="text;strokeColor=none;fillColor=none;align=left;verticalAlign=top;spacingLeft=4;spacingRight=4;overflow=hidden;rotatable=0;points=[[0,0.5],[1,0.5]];portConstraint=eastwest;whiteSpace=wrap;html=1;" vertex="1" parent="ECvIYYzI3fATd54jcmxr-36">
          <mxGeometry y="26" width="160" height="44" as="geometry" />
        </mxCell>
        <mxCell id="ECvIYYzI3fATd54jcmxr-38" value="" style="line;strokeWidth=1;fillColor=none;align=left;verticalAlign=middle;spacingTop=-1;spacingLeft=3;spacingRight=3;rotatable=0;labelPosition=right;points=[];portConstraint=eastwest;strokeColor=inherit;" vertex="1" parent="ECvIYYzI3fATd54jcmxr-36">
          <mxGeometry y="70" width="160" height="20" as="geometry" />
        </mxCell>
        <mxCell id="ECvIYYzI3fATd54jcmxr-46" value="" style="endArrow=open;endSize=12;dashed=1;html=1;rounded=0;exitX=1;exitY=0.076;exitDx=0;exitDy=0;exitPerimeter=0;entryX=0;entryY=0.25;entryDx=0;entryDy=0;" edge="1" parent="1" source="ECvIYYzI3fATd54jcmxr-10" target="ECvIYYzI3fATd54jcmxr-20">
          <mxGeometry width="160" relative="1" as="geometry">
            <mxPoint x="330" y="330" as="sourcePoint" />
            <mxPoint x="490" y="330" as="targetPoint" />
          </mxGeometry>
        </mxCell>
        <mxCell id="ECvIYYzI3fATd54jcmxr-47" value="" style="endArrow=open;endSize=12;dashed=1;html=1;rounded=0;exitX=1;exitY=0.101;exitDx=0;exitDy=0;exitPerimeter=0;entryX=0;entryY=0.25;entryDx=0;entryDy=0;" edge="1" parent="1" source="ECvIYYzI3fATd54jcmxr-10" target="ECvIYYzI3fATd54jcmxr-24">
          <mxGeometry width="160" relative="1" as="geometry">
            <mxPoint x="330" y="330" as="sourcePoint" />
            <mxPoint x="490" y="330" as="targetPoint" />
          </mxGeometry>
        </mxCell>
        <mxCell id="ECvIYYzI3fATd54jcmxr-48" value="" style="endArrow=open;endSize=12;dashed=1;html=1;rounded=0;exitX=0.996;exitY=0.097;exitDx=0;exitDy=0;exitPerimeter=0;" edge="1" parent="1" source="ECvIYYzI3fATd54jcmxr-10" target="ECvIYYzI3fATd54jcmxr-72">
          <mxGeometry width="160" relative="1" as="geometry">
            <mxPoint x="330" y="330" as="sourcePoint" />
            <mxPoint x="620" y="354.78246402129594" as="targetPoint" />
          </mxGeometry>
        </mxCell>
        <mxCell id="ECvIYYzI3fATd54jcmxr-49" value="" style="endArrow=open;endSize=12;dashed=1;html=1;rounded=0;exitX=0.996;exitY=0.097;exitDx=0;exitDy=0;exitPerimeter=0;entryX=0.153;entryY=-0.023;entryDx=0;entryDy=0;entryPerimeter=0;" edge="1" parent="1" source="ECvIYYzI3fATd54jcmxr-10" target="ECvIYYzI3fATd54jcmxr-32">
          <mxGeometry width="160" relative="1" as="geometry">
            <mxPoint x="330" y="330" as="sourcePoint" />
            <mxPoint x="490" y="330" as="targetPoint" />
          </mxGeometry>
        </mxCell>
        <mxCell id="ECvIYYzI3fATd54jcmxr-50" value="" style="endArrow=open;endSize=12;dashed=1;html=1;rounded=0;exitX=1.008;exitY=0.097;exitDx=0;exitDy=0;exitPerimeter=0;entryX=0.147;entryY=0.014;entryDx=0;entryDy=0;entryPerimeter=0;" edge="1" parent="1" source="ECvIYYzI3fATd54jcmxr-10" target="ECvIYYzI3fATd54jcmxr-36">
          <mxGeometry width="160" relative="1" as="geometry">
            <mxPoint x="330" y="330" as="sourcePoint" />
            <mxPoint x="490" y="330" as="targetPoint" />
          </mxGeometry>
        </mxCell>
        <mxCell id="ECvIYYzI3fATd54jcmxr-61" value="traps" style="swimlane;fontStyle=1;align=center;verticalAlign=top;childLayout=stackLayout;horizontal=1;startSize=26;horizontalStack=0;resizeParent=1;resizeParentMax=0;resizeLast=0;collapsible=1;marginBottom=0;whiteSpace=wrap;html=1;" vertex="1" parent="1">
          <mxGeometry x="320" y="600" width="160" height="106" as="geometry" />
        </mxCell>
        <mxCell id="ECvIYYzI3fATd54jcmxr-63" value="" style="line;strokeWidth=1;fillColor=none;align=left;verticalAlign=middle;spacingTop=-1;spacingLeft=3;spacingRight=3;rotatable=0;labelPosition=right;points=[];portConstraint=eastwest;strokeColor=inherit;" vertex="1" parent="ECvIYYzI3fATd54jcmxr-61">
          <mxGeometry y="26" width="160" height="20" as="geometry" />
        </mxCell>
        <mxCell id="ECvIYYzI3fATd54jcmxr-64" value="+void down()&lt;br&gt;+void createBomb()&lt;br&gt;+void BOOM()" style="text;strokeColor=none;fillColor=none;align=left;verticalAlign=top;spacingLeft=4;spacingRight=4;overflow=hidden;rotatable=0;points=[[0,0.5],[1,0.5]];portConstraint=eastwest;whiteSpace=wrap;html=1;" vertex="1" parent="ECvIYYzI3fATd54jcmxr-61">
          <mxGeometry y="46" width="160" height="60" as="geometry" />
        </mxCell>
        <mxCell id="ECvIYYzI3fATd54jcmxr-65" value="" style="endArrow=open;endSize=12;dashed=1;html=1;rounded=0;entryX=0.25;entryY=0;entryDx=0;entryDy=0;exitX=0.992;exitY=0.083;exitDx=0;exitDy=0;exitPerimeter=0;" edge="1" parent="1" source="ECvIYYzI3fATd54jcmxr-10" target="ECvIYYzI3fATd54jcmxr-61">
          <mxGeometry width="160" relative="1" as="geometry">
            <mxPoint x="222" y="238" as="sourcePoint" />
            <mxPoint x="104" y="582" as="targetPoint" />
          </mxGeometry>
        </mxCell>
        <mxCell id="ECvIYYzI3fATd54jcmxr-66" value="inheritance" style="html=1;verticalAlign=bottom;endArrow=block;curved=0;rounded=0;entryX=1;entryY=0.25;entryDx=0;entryDy=0;exitX=-0.009;exitY=0.171;exitDx=0;exitDy=0;exitPerimeter=0;" edge="1" parent="1" source="ECvIYYzI3fATd54jcmxr-61" target="ECvIYYzI3fATd54jcmxr-36">
          <mxGeometry width="80" relative="1" as="geometry">
            <mxPoint x="310" y="660" as="sourcePoint" />
            <mxPoint x="440" y="490" as="targetPoint" />
          </mxGeometry>
        </mxCell>
        <mxCell id="ECvIYYzI3fATd54jcmxr-67" value="inheritance" style="html=1;verticalAlign=bottom;endArrow=block;curved=0;rounded=0;" edge="1" parent="1" source="ECvIYYzI3fATd54jcmxr-24" target="ECvIYYzI3fATd54jcmxr-20">
          <mxGeometry width="80" relative="1" as="geometry">
            <mxPoint x="329" y="628" as="sourcePoint" />
            <mxPoint x="240" y="603" as="targetPoint" />
          </mxGeometry>
        </mxCell>
        <mxCell id="ECvIYYzI3fATd54jcmxr-68" value="inheritance" style="html=1;verticalAlign=bottom;endArrow=block;curved=0;rounded=0;" edge="1" parent="1" source="ECvIYYzI3fATd54jcmxr-72" target="ECvIYYzI3fATd54jcmxr-20">
          <mxGeometry width="80" relative="1" as="geometry">
            <mxPoint x="655.0943396226414" y="295" as="sourcePoint" />
            <mxPoint x="472" y="230" as="targetPoint" />
          </mxGeometry>
        </mxCell>
        <mxCell id="ECvIYYzI3fATd54jcmxr-69" value="inheritance" style="html=1;verticalAlign=bottom;endArrow=block;curved=0;rounded=0;exitX=0.75;exitY=0;exitDx=0;exitDy=0;" edge="1" parent="1" source="ECvIYYzI3fATd54jcmxr-32" target="ECvIYYzI3fATd54jcmxr-24">
          <mxGeometry width="80" relative="1" as="geometry">
            <mxPoint x="458" y="325" as="sourcePoint" />
            <mxPoint x="482" y="240" as="targetPoint" />
          </mxGeometry>
        </mxCell>
        <mxCell id="ECvIYYzI3fATd54jcmxr-70" value="inheritance" style="html=1;verticalAlign=bottom;endArrow=block;curved=0;rounded=0;exitX=0.878;exitY=0.017;exitDx=0;exitDy=0;exitPerimeter=0;" edge="1" parent="1" source="ECvIYYzI3fATd54jcmxr-32" target="ECvIYYzI3fATd54jcmxr-75">
          <mxGeometry width="80" relative="1" as="geometry">
            <mxPoint x="468" y="335" as="sourcePoint" />
            <mxPoint x="620" y="448.72019765287223" as="targetPoint" />
          </mxGeometry>
        </mxCell>
        <mxCell id="ECvIYYzI3fATd54jcmxr-72" value="MovingPlatform" style="swimlane;fontStyle=1;align=center;verticalAlign=top;childLayout=stackLayout;horizontal=1;startSize=26;horizontalStack=0;resizeParent=1;resizeParentMax=0;resizeLast=0;collapsible=1;marginBottom=0;whiteSpace=wrap;html=1;" vertex="1" parent="1">
          <mxGeometry x="610" y="300" width="173" height="156" as="geometry" />
        </mxCell>
        <mxCell id="ECvIYYzI3fATd54jcmxr-73" value="#vector&amp;lt;int&amp;gt; direction" style="text;html=1;align=center;verticalAlign=middle;resizable=0;points=[];autosize=1;strokeColor=none;fillColor=none;" vertex="1" parent="ECvIYYzI3fATd54jcmxr-72">
          <mxGeometry y="26" width="173" height="30" as="geometry" />
        </mxCell>
        <mxCell id="ECvIYYzI3fATd54jcmxr-74" value="" style="line;strokeWidth=1;fillColor=none;align=left;verticalAlign=middle;spacingTop=-1;spacingLeft=3;spacingRight=3;rotatable=0;labelPosition=right;points=[];portConstraint=eastwest;strokeColor=inherit;" vertex="1" parent="ECvIYYzI3fATd54jcmxr-72">
          <mxGeometry y="56" width="173" height="34" as="geometry" />
        </mxCell>
        <mxCell id="ECvIYYzI3fATd54jcmxr-75" value="+void movePlatforms() override&lt;br&gt;+void update()" style="text;strokeColor=none;fillColor=none;align=left;verticalAlign=top;spacingLeft=4;spacingRight=4;overflow=hidden;rotatable=0;points=[[0,0.5],[1,0.5]];portConstraint=eastwest;whiteSpace=wrap;html=1;" vertex="1" parent="ECvIYYzI3fATd54jcmxr-72">
          <mxGeometry y="90" width="173" height="66" as="geometry" />
        </mxCell>
      </root>
    </mxGraphModel>
  </diagram>
</mxfile>
